<svg id="レイヤー_1" data-name="レイヤー 1" xmlns="http://www.w3.org/2000/svg" viewBox="0 0 280 56"><defs><style>.cls-1{fill:#231815;}.cls-2{fill:#6fb92c;}.cls-3{fill:#8dc21f;}.cls-4{fill:#fff;}</style></defs><path class="cls-1" d="M222.54,27.89V25.18c2.85-1.58,5.1-5.64,6.28-8.27h3.3C230.61,20.78,226.27,26.16,222.54,27.89Z"/><path class="cls-1" d="M244.86,28.19V24.35a21.55,21.55,0,0,1-7.2-7.44h-2.38C236.83,20.56,241.18,26.38,244.86,28.19Z"/><path class="cls-1" d="M183.72,16h-2.93c-1.95,1.94-6.4,5.29-9.88,6.27v2.2c3-.88,8.92-3.53,12-6.18a30.34,30.34,0,0,0,10.66,6.36V21.68A30.28,30.28,0,0,1,183.72,16Z"/><polygon class="cls-1" points="188.82 37.33 190.74 32.68 187.63 32.68 186.24 37.33 183.72 37.33 183.72 30.32 192.62 30.32 192.62 27.91 183.72 27.91 183.72 25.09 188.88 25.09 188.88 22.73 175.63 22.73 175.63 25.09 180.79 25.09 180.79 27.91 171.89 27.91 171.89 30.32 180.79 30.32 180.79 37.33 178.53 37.33 176.71 32.68 174.13 32.68 175.67 37.33 170.96 37.33 170.96 39.74 193.55 39.74 193.55 37.33 188.82 37.33"/><rect class="cls-1" x="196.85" y="16.44" width="11.17" height="2.3"/><polygon class="cls-1" points="205.2 34.05 199.66 34.05 199.66 35.8 201.49 35.8 201.49 39.96 203.38 39.96 203.38 35.8 205.2 35.8 205.2 34.05"/><path class="cls-1" d="M156.44,17.67h-6.21a10.49,10.49,0,0,0,.6-1.76h-3a9.7,9.7,0,0,1-2.93,5.82h2.81a9.57,9.57,0,0,0,1.44-1.94H150l1.1,2.59h2.69l-1.1-2.59h3.78Z"/><path class="cls-1" d="M167.8,17.67h-7.19a11,11,0,0,0,.59-1.76h-3a9.75,9.75,0,0,1-2.5,5.47h2.81a8.55,8.55,0,0,0,1.07-1.59h2.62l-1.86,2.59H163l1.86-2.59h2.91Z"/><path class="cls-1" d="M131,19.67V17.38H119.77v2.29h4.6V36.08l-1.22.23V23.85h-2.38V36.56a8.34,8.34,0,0,1-1,0V39A33.41,33.41,0,0,0,131,36.09V34a42.59,42.59,0,0,1-4.05,1.39v-7.8h2.59v-2.3h-2.59V19.67Z"/><path class="cls-1" d="M71.73,16.14V40.06h9.59c3.35,0,7.68-1.5,9-3V16.14ZM87.36,36a16.28,16.28,0,0,1-6.84,1.49H74.67V28.73H87.36Zm0-9.83H74.67V18.73H87.36Z"/><path class="cls-1" d="M116.59,19.38H106.8V15.85h-2.93v3.53h-9.8v2.41h6.77a33.94,33.94,0,0,1-6.65,11.5v2.88l.12.12c4.74-3.71,8.48-11,9.55-14.5h0V32.91H99.39v2.42h4.48v4.73h2.93V35.33h4.48V32.91H106.8V21.79h0c1.12,3.55,5.16,11.16,9.66,15.07V32.48a34.86,34.86,0,0,1-7.36-10.69h7.48Z"/><path class="cls-1" d="M142,20.85V18.56h-7.7c.09-.91.13-1.78.13-2.59h-2.56c-.06,3.88-.67,8.82-2.38,12.44H132a16.5,16.5,0,0,0,.71-1.76,22.73,22.73,0,0,0,2.64,6.66,12.24,12.24,0,0,1-6.1,4.37v2.47a16.58,16.58,0,0,0,7.45-4.89,18.32,18.32,0,0,0,5.31,4.6v-3.3a18.53,18.53,0,0,1-3.87-3.34c2.06-3.49,2.74-7.78,2.77-12.37Zm-5.43,10.31c-1.56-2.61-2.41-5.89-2.44-10.31h4.33A23.31,23.31,0,0,1,136.61,31.16Z"/><path class="cls-1" d="M167.84,25.44V23H158v-.88h-2.92V23h-9.8v2.41h9.8v1.47h-8.86v6.68h2.63V29h6.21c-2.06,3.86-6.24,7.41-9.64,8.41v2.18a18.6,18.6,0,0,0,9.66-6.74v7.18H158V32.54A18.89,18.89,0,0,0,167.7,40V37.15c-3.46-.68-7.59-4.25-9.64-8.12h6.21V32h-2v1.94h1.95c1.06,0,2.7-.82,2.7-1.57V26.91H158V25.44Z"/><path class="cls-1" d="M197.56,19.44v7h5.27c2.11,0,4.47-.91,4.47-1.57v-5.4Zm7.36,4.41a9,9,0,0,1-2.14.27h-2.84V21.73h5Z"/><path class="cls-1" d="M196.85,27.34V40H199V29.28h1.15a9.27,9.27,0,0,1-1,4.06c.07,0,1.62,0,1.62,0a7.9,7.9,0,0,0,1.15-4.06h.87V32.1c0,.64.7,1,1.43,1h1.59v4.65c0,.13-.22.27-.43.27H204.2V40h1.19c1.33,0,2.63-.68,2.63-1.62v-11Zm9,4.17h-1.28V29.28h1.28Z"/><path class="cls-1" d="M218.77,34.22h-2.19c.19.57.36,1.19.51,1.81a11.59,11.59,0,0,1-1.81.56v-5.4h.57c1.56,0,3.33-.39,3.33-1.36V19.44h-3.9V16h-2.75v3.42h-3.9V31.19h3.9v5.86a31.83,31.83,0,0,1-3.9.24v2.29a24,24,0,0,0,8.8-1.53,9.86,9.86,0,0,1,.06,1.91H220A15.1,15.1,0,0,0,218.77,34.22Zm-2-12.49v6.6c0,.48-.52.57-1,.57h-.57V21.73ZM211,28.9V21.73h1.51V28.9Z"/><path class="cls-1" d="M244.89,40a42,42,0,0,0-4.67-8.77H237.3c.86,1.36,1.87,3.06,2.75,4.82a57.83,57.83,0,0,1-12,1.16,33.54,33.54,0,0,0,5-10.46h-3.16A27,27,0,0,1,225,37.19h-1.78v2.29c8.91,0,13.39-.29,17.72-1.61a21.88,21.88,0,0,1,.75,2.08Z"/><path class="cls-1" d="M270.76,19.91v-2.3H261.1V16h-3v1.64h-9.59V32a28.83,28.83,0,0,1-1,7.93h2.69c.55-1.34,1.1-4.75,1.1-9.93V19.91h8.55v1.35h-7.52v2h7.52v1.36h-7.12V34h7.12v1.31H251.7v2h8.14V40h2.73V37.34h8.14v-2h-8.14V34h1.55c3,0,5.64-1,5.64-2.18l0-2-.06-5.28h-7.11V23.26h7.51v-2h-7.51V19.91Zm-15.32,6.61h4.4v1.85h-4.4Zm0,5.61V30.27h4.4v1.86Zm8,0h-.86V30.27H267v1.17C267,31.94,264.21,32.13,263.43,32.13ZM267,26.52l0,1.85h-4.43V26.52Z"/><path class="cls-2" d="M57.85,28A24.31,24.31,0,1,1,33.55,3.7,24.3,24.3,0,0,1,57.85,28Z"/><path class="cls-3" d="M48.36,29.51A19.44,19.44,0,1,1,28.92,10.08,19.44,19.44,0,0,1,48.36,29.51Z"/><path class="cls-4" d="M25.09,29.63c0,5-3.77,7.11-6.3,7.11H17.08c2.6-1.22,3.36-3.48,3.36-7.11V19.34h4.65Z"/><path class="cls-4" d="M39.22,21.9V19.34h-11V30.21c0,3.63-.26,5.37-1.78,6.53h6.43V28.86h5.2V26.3h-5.2V21.9Z"/><path class="cls-4" d="M50.77,21.83h1.71V19.34h-3.1a9,9,0,0,0-9.18,8.73,9,9,0,0,0,9.18,8.73h3.1V34.32H50.77a6,6,0,0,1-5.7-6.25A6,6,0,0,1,50.77,21.83Z"/><path class="cls-4" d="M18.12,33.67a3.08,3.08,0,1,1-3.07-3.07A3.08,3.08,0,0,1,18.12,33.67Z"/></svg>